<?xml version="1.0" encoding="utf-8"?><svg version="1.1" id="Layer_1" xmlns="http://www.w3.org/2000/svg" xmlns:xlink="http://www.w3.org/1999/xlink" x="0px" y="0px" viewBox="0 0 122.88 120.92" style="enable-background:new 0 0 122.88 120.92" xml:space="preserve"><style type="text/css"><![CDATA[
	.st0{fill-rule:evenodd;clip-rule:evenodd;fill:#A6601B;}
	.st1{fill:#864D16;}
	.st2{fill-rule:evenodd;clip-rule:evenodd;fill:#864D16;}
	.st3{fill-rule:evenodd;clip-rule:evenodd;fill:#FFC90E;}
]]></style><g><path class="st0" d="M61.41,29.44c17.05,0,30.88,13.82,30.88,30.88c0,17.05-13.83,30.88-30.88,30.88 c-17.05,0-30.88-13.82-30.88-30.88C30.53,43.26,44.35,29.44,61.41,29.44L61.41,29.44z"/><path class="st1" d="M56.4,29.29c0.04-6.19,1.43-11.59,3.91-16.26c2.68-5.06,6.63-9.23,11.48-12.58c1.16-0.8,2.75-0.51,3.54,0.65 l0.07,0.1l0,0c3.1,4.96,5.15,10.13,5.74,15.6c0.6,5.5-0.29,11.22-3.06,17.23c-0.59,1.28-2.11,1.84-3.38,1.25l-0.18-0.09 c-2.32-1.25-4.74-2.13-7.28-2.66c-2.57-0.53-5.28-0.7-8.13-0.51c-1.41,0.09-2.62-0.97-2.72-2.38 C56.39,29.52,56.39,29.41,56.4,29.29L56.4,29.29z"/><path class="st3" d="M58.94,29.47c0.02-12.06,5.57-20.91,14.29-26.93c5.81,9.3,7.67,19.29,2.53,30.41 C70.68,30.21,65.07,29.06,58.94,29.47L58.94,29.47z"/><path class="st1" d="M70.16,30.32l0.01-0.02c2.7-5.63,6.31-9.95,10.6-13.13c4.6-3.41,9.96-5.49,15.77-6.42 c1.39-0.22,2.7,0.73,2.92,2.12l0.01,0.11l0,0c0.66,5.81,0.29,11.36-1.53,16.55c-1.83,5.23-5.1,10.02-10.19,14.25 c-1.09,0.9-2.7,0.75-3.59-0.34c-0.08-0.09-0.15-0.19-0.21-0.29c-3.21-4.34-7.44-7.37-12.44-9.35c-1.31-0.52-1.95-2-1.43-3.31 L70.16,30.32L70.16,30.32z"/><path class="st3" d="M72.45,31.42c5.21-10.87,14.03-16.47,24.49-18.15c1.25,10.89-1.38,20.71-10.81,28.54 C82.74,37.14,78.17,33.68,72.45,31.42L72.45,31.42z"/><path class="st1" d="M82.28,36.95c4.84-3.89,9.95-6.23,15.17-7.25c5.62-1.1,11.35-0.66,17,1c1.35,0.4,2.12,1.81,1.73,3.17 l-0.03,0.11l0,0c-1.9,5.53-4.63,10.38-8.51,14.28c-3.9,3.93-8.91,6.85-15.33,8.47c-1.37,0.34-2.75-0.49-3.1-1.86 c-0.02-0.09-0.04-0.18-0.05-0.26c-1.02-5.33-3.54-9.92-7.22-13.88c-0.96-1.03-0.9-2.65,0.13-3.6C82.15,37.06,82.21,37,82.28,36.95 L82.28,36.95z"/><path class="st3" d="M83.82,38.99c9.38-7.57,19.75-8.83,29.92-5.84c-3.56,10.37-10.16,18.1-22.04,21.11 C90.64,48.58,88,43.49,83.82,38.99L83.82,38.99z"/><path class="st1" d="M90.22,48.22c6.06-1.44,11.7-1.36,16.89-0.02c5.56,1.43,10.54,4.29,14.92,8.21c1.05,0.94,1.14,2.55,0.2,3.59 l-0.08,0.09l0,0c-4.09,4.17-8.65,7.37-13.82,9.23c-5.22,1.87-11,2.35-17.47,1.06c-1.38-0.28-2.28-1.62-2.01-3.01 c0.02-0.11,0.05-0.21,0.08-0.31c0.65-2.51,0.93-5.04,0.85-7.59c-0.08-2.62-0.55-5.29-1.41-8.01c-0.42-1.35,0.33-2.78,1.68-3.2 L90.22,48.22L90.22,48.22L90.22,48.22z"/><path class="st3" d="M90.81,50.71c11.73-2.8,21.63,0.53,29.52,7.6c-7.68,7.82-16.96,11.97-28.98,9.57 C92.84,62.3,92.65,56.58,90.81,50.71L90.81,50.71z"/><path class="st1" d="M92.61,61.81l0.02,0.01c6.1,1.31,11.15,3.81,15.25,7.24c4.4,3.68,7.66,8.4,9.93,13.84 c0.54,1.3-0.08,2.79-1.38,3.33c-0.07,0.03-0.15,0.06-0.22,0.08c-5.46,1.98-10.91,2.89-16.33,2.34c-5.51-0.56-10.93-2.61-16.23-6.58 c-1.13-0.84-1.35-2.44-0.51-3.57c0.06-0.08,0.12-0.15,0.18-0.21c1.66-1.97,3.01-4.14,4.05-6.51c1.05-2.41,1.78-5.02,2.18-7.84 c0.2-1.4,1.49-2.37,2.89-2.17L92.61,61.81L92.61,61.81z"/><path class="st3" d="M92.08,64.3c11.79,2.52,19.29,9.79,23.37,19.57c-10.3,3.76-20.46,3.5-30.27-3.84 C88.92,75.64,91.21,70.39,92.08,64.3L92.08,64.3z"/><path class="st1" d="M89.02,75.17c4.9,3.79,8.36,8.21,10.57,13.05c2.38,5.22,3.3,10.88,3.01,16.75c-0.07,1.41-1.26,2.49-2.67,2.43 c-0.07,0-0.14-0.01-0.22-0.02c-5.78-0.56-11.11-2.08-15.78-4.92c-4.73-2.87-8.74-7.06-11.82-12.92c-0.65-1.25-0.17-2.79,1.08-3.44 l0.14-0.07c2.4-1.08,4.59-2.47,6.57-4.18c1.99-1.72,3.77-3.76,5.34-6.13c0.78-1.17,2.36-1.5,3.54-0.72 C88.87,75.05,88.95,75.11,89.02,75.17L89.02,75.17z"/><path class="st3" d="M87.38,77.12c9.55,7.35,13.2,17.14,12.67,27.72c-10.91-1.04-19.98-5.65-25.67-16.5 C79.65,85.99,83.97,82.24,87.38,77.12L87.38,77.12z"/><path class="st1" d="M79.89,85.52c2.83,5.56,4.06,11.07,3.97,16.42c-0.09,5.74-1.7,11.25-4.49,16.42 c-0.67,1.24-2.21,1.71-3.46,1.04c-0.07-0.04-0.14-0.08-0.21-0.13c-4.98-3-9.12-6.66-12.1-11.21c-3.03-4.62-4.84-10.13-5.1-16.76 c-0.05-1.41,1.05-2.59,2.46-2.64l0.21,0c2.62,0.06,5.18-0.26,7.68-0.94c2.53-0.69,5.01-1.77,7.46-3.24 c1.21-0.72,2.77-0.33,3.49,0.88L79.89,85.52L79.89,85.52z"/><path class="st3" d="M77.61,86.66c5.46,10.75,4.54,21.15-0.49,30.48c-9.4-5.64-15.6-13.7-16.07-25.94 C66.82,91.34,72.34,89.82,77.61,86.66L77.61,86.66z"/><path class="st1" d="M67.24,91.08c0.15,6.22-1.11,11.7-3.47,16.46c-2.55,5.14-6.38,9.42-11.13,12.89 c-1.14,0.83-2.73,0.59-3.56-0.55l-0.07-0.1c-3.23-4.87-5.42-9.99-6.16-15.44c-0.75-5.49-0.02-11.24,2.6-17.31 c0.56-1.3,2.06-1.89,3.35-1.34c0.09,0.04,0.19,0.09,0.27,0.14c2.32,1.16,4.74,1.97,7.26,2.42c2.59,0.46,5.3,0.56,8.13,0.29 c1.4-0.13,2.64,0.9,2.78,2.3C67.24,90.92,67.24,91,67.24,91.08L67.24,91.08z"/><path class="st3" d="M64.69,91.07c0.3,12.05-5.01,21.05-13.56,27.3c-6.06-9.14-8.19-19.08-3.34-30.33 C52.93,90.65,58.57,91.65,64.69,91.07L64.69,91.07z"/><path class="st1" d="M53.42,90.61c-2.54,5.67-6.03,10.07-10.23,13.35c-4.51,3.54-9.81,5.75-15.59,6.84 c-1.38,0.26-2.72-0.65-2.98-2.04l-0.02-0.12c-0.82-5.79-0.59-11.35,1.09-16.58c1.69-5.27,4.82-10.14,9.8-14.5 c1.06-0.93,2.67-0.82,3.59,0.24l0.1,0.12c1.6,2.08,3.47,3.88,5.6,5.41c2.15,1.54,4.55,2.8,7.2,3.77c1.32,0.48,2.01,1.94,1.53,3.27 C53.5,90.45,53.46,90.53,53.42,90.61L53.42,90.61z"/><path class="st3" d="M51.13,89.49c-4.92,11.01-13.58,16.84-23.99,18.8c-1.54-10.86,0.82-20.74,10.04-28.82 C40.7,84.05,45.36,87.38,51.13,89.49L51.13,89.49z"/><path class="st1" d="M41.23,84.17c-4.75,4.05-9.82,6.54-15.05,7.71c-5.6,1.25-11.33,0.97-17.01-0.54C7.81,90.98,7,89.59,7.35,88.22 l0.03-0.11c1.75-5.58,4.35-10.51,8.12-14.51c3.79-4.03,8.72-7.08,15.09-8.88c1.36-0.38,2.77,0.41,3.15,1.77l0.04,0.16 c0.55,2.57,1.46,5,2.72,7.29c1.27,2.31,2.9,4.47,4.88,6.5c0.99,1,0.97,2.62-0.03,3.6L41.23,84.17L41.23,84.17z"/><path class="st3" d="M39.57,82.23c-9.18,7.82-19.51,9.36-29.75,6.64c3.28-10.46,9.67-18.37,21.47-21.69 C32.5,72.83,35.27,77.84,39.57,82.23L39.57,82.23z"/><path class="st1" d="M32.85,73.18c-6.01,1.59-11.63,1.65-16.82,0.46c-5.59-1.28-10.64-4-15.13-7.81c-1.08-0.91-1.21-2.52-0.3-3.59 l0.08-0.09c3.98-4.28,8.45-7.61,13.58-9.6c5.16-2.01,10.92-2.64,17.43-1.52c1.39,0.24,2.32,1.56,2.09,2.95l-0.03,0.16 c-0.61,2.58-0.84,5.16-0.69,7.76c0.15,2.62,0.7,5.28,1.62,7.98c0.45,1.33-0.26,2.78-1.6,3.24C33,73.14,32.93,73.16,32.85,73.18 L32.85,73.18z"/><path class="st3" d="M32.26,70.7c-11.65,3.11-21.63,0.05-29.71-6.81c7.47-8.03,16.64-12.42,28.71-10.34 C29.93,59.17,30.27,64.88,32.26,70.7L32.26,70.7z"/><path class="st1" d="M30,59.62C18.07,57.34,9.38,50.3,4.42,39.25c-0.57-1.28,0-2.79,1.29-3.37l0.1-0.04l0-0.01 c5.44-2.15,10.9-3.23,16.37-2.82c5.51,0.41,10.99,2.32,16.4,6.15c1.15,0.81,1.42,2.4,0.61,3.54l-0.09,0.13l0,0 c-1.65,2.05-2.97,4.28-3.95,6.71c-0.99,2.44-1.65,5.07-1.98,7.89c-0.16,1.4-1.42,2.41-2.83,2.25C30.22,59.67,30.11,59.65,30,59.62 L30,59.62z"/><path class="st3" d="M30.63,57.14c-11.85-2.21-19.55-9.27-23.89-18.94c10.2-4.03,20.36-4.05,30.37,3.03 C33.49,45.73,31.34,51.04,30.63,57.14L30.63,57.14z"/><path class="st1" d="M33.49,46.26c-5.05-3.68-8.65-8.02-11.01-12.82c-2.52-5.15-3.59-10.78-3.45-16.66c0.03-1.41,1.19-2.52,2.6-2.5 l0.12,0.01v-0.01c5.84,0.4,11.23,1.78,16,4.5l0.01,0l0,0c4.8,2.74,8.92,6.82,12.15,12.6c0.69,1.23,0.25,2.79-0.98,3.48 c-0.1,0.06-0.2,0.11-0.31,0.15c-4.83,2.36-8.63,6.01-11.48,10.55c-0.74,1.19-2.31,1.55-3.51,0.81L33.49,46.26L33.49,46.26z"/><path class="st3" d="M34.99,44.21c-9.75-7.1-13.66-16.78-13.41-27.38c10.94,0.75,20.12,5.11,26.1,15.8 C42.48,35.13,38.26,39,34.99,44.21L34.99,44.21z"/><path class="st1" d="M42.19,35.5c-2.93-5.44-4.29-10.88-4.34-16.19c-0.06-5.73,1.4-11.28,4.06-16.53c0.63-1.26,2.17-1.76,3.42-1.13 c0.09,0.04,0.17,0.09,0.26,0.15c5.03,2.86,9.26,6.4,12.35,10.86c3.15,4.54,5.12,10,5.55,16.6c0.09,1.41-0.98,2.62-2.39,2.71 c-0.1,0.01-0.21,0.01-0.31,0c-2.58,0.02-5.1,0.4-7.55,1.15c-2.5,0.76-4.96,1.91-7.37,3.44c-1.19,0.76-2.77,0.4-3.52-0.79 C42.28,35.68,42.23,35.59,42.19,35.5L42.19,35.5z"/><path class="st3" d="M44.5,34.41c-5.74-10.6-5.1-21.02-0.32-30.48c9.55,5.38,15.96,13.27,16.76,25.5 C55.16,29.44,49.69,31.11,44.5,34.41L44.5,34.41z"/><path class="st2" d="M61.41,44.1c8.95,0,16.21,7.26,16.21,16.21c0,8.95-7.26,16.21-16.21,16.21c-8.95,0-16.21-7.26-16.21-16.21 C45.2,51.36,52.45,44.1,61.41,44.1L61.41,44.1z"/></g></svg>